<?xml version="1.0" encoding="UTF-8"?>
<!DOCTYPE svg PUBLIC "-//W3C//DTD SVG 1.1//EN" "http://www.w3.org/Graphics/SVG/1.1/DTD/svg11.dtd">
<!-- Creator: CorelDRAW 2018 (64 Bit) -->
<svg xmlns="http://www.w3.org/2000/svg" xml:space="preserve" width="1408px" height="2038px" version="1.1" style="shape-rendering:geometricPrecision; text-rendering:geometricPrecision; image-rendering:optimizeQuality; fill-rule:evenodd; clip-rule:evenodd"
viewBox="0 0 1980.97 2866.31"
 xmlns:xlink="http://www.w3.org/1999/xlink">
 <defs>
  <style type="text/css">
   <![CDATA[
    .fil0 {fill:#017CFD}
   ]]>
  </style>
 </defs>
 <g id="Camada_x0020_1">
  <metadata id="CorelCorpID_0Corel-Layer"/>
  <g id="_1466694224064">
   <path class="fil0" d="M1414.8 1942.97c21.63,-1.82 126.49,0.07 156.95,0.19l314.07 1.1c16.44,0.07 36.83,18.64 47.69,29.65 12.42,12.6 24.36,27.97 25.73,53.41l-542.98 -44.8c-2.75,-7.03 -1.64,-31.38 -1.46,-39.55zm-1393.02 87.66c0.4,-47.4 58,-84.82 70.63,-86.22l473.96 -1.49 -0.23 35.13c-0.87,4.33 -0.31,2.13 -1.37,4.02l-542.99 48.56zm1393.18 -107.5c6.44,-3.57 273.33,-19.07 318.84,-21.99 14.32,-0.92 39.37,-4.62 51.63,-1.26 7.09,1.94 35.14,9.84 40.84,15.07 -67.63,4.14 -138.26,5.34 -206.08,7.58 -25.68,0.85 -196.8,10.8 -205.46,5.61l0.23 -5.01zm-1215.46 -24.27c9.21,-1.49 143.59,8.54 159.76,9.59l160.35 10.39c8.53,0.56 16.89,1.21 25.18,1.72 24.26,1.5 21.26,-1.2 21.55,7.58 -7.44,4.45 -38.79,0.4 -50.14,-0.01 -115.77,-4.09 -247.88,-6.55 -359.83,-13.11l43.13 -16.16zm1215.29 12.58c0.28,-9.27 3.16,-7.08 13.34,-8.28l125.15 -17.17c23.73,-3.13 47.71,-6.57 71.6,-9.87 28.05,-3.88 42.41,-8.36 69.86,1.31 -16.89,3.92 -115.14,15.31 -139.91,18.39 -2.41,0.3 -137.5,19.3 -138.86,16.1 -0.2,-0.47 -0.82,-0.25 -1.18,-0.48zm-1063.32 -35.9c62.84,8.75 141.45,20.94 203.02,27.87 9.83,1.11 11.55,-0.87 11.91,8.03 -4.34,2.83 -13.39,0.6 -18.35,-0.06 -5.7,-0.75 -11.79,-1.49 -17.68,-2.25 -12.33,-1.58 -23.75,-3.12 -35.88,-4.56 -39.58,-4.7 -182.74,-21.59 -213.16,-27.42 32.28,-9.74 36.76,-6.26 70.14,-1.61zm1063.29 19.44c0.18,-11.38 5.86,-8.85 17.41,-11.34l65.4 -14.7c22.38,-4.98 70.1,-20.71 90.82,-10.21l-173.63 36.25zm-865.89 -11.18c9.48,2.1 16.62,0.46 17.6,9.27 -5.76,4.06 -37.76,-5.29 -44.97,-6.8 -23.66,-4.98 -128.39,-25.51 -135.99,-29.95 15.94,-7.62 32.68,-2.02 48.84,1.72l91.43 20.56c7.43,1.65 15.23,3.46 23.09,5.2zm865.93 -48.72l92.4 10.7c-9.46,2.43 -32.37,11.66 -45.13,15.99 -14.26,4.84 -33.46,12.71 -47.26,15.57l-0.01 -42.26zm-947.66 9.65c5.21,-3.96 16.18,-4.18 24,-5.19 8.43,-1.08 17.03,-2.15 25.35,-3.12 15.73,-1.83 34.08,-4.7 50.01,-4.99l-0.63 46.5 -98.73 -33.2zm686.89 135.19c3.48,5.96 64.11,20.13 71.54,22.17l366.68 100.99c48.05,13.54 100.33,25.54 146.54,40.62 -8.57,5.4 -28.63,7.65 -40.11,10.12 -19.82,4.26 -21.32,0.9 -40.33,-5.06 -129.35,-40.57 -261.34,-78.23 -390.56,-118.77 -41.71,-13.08 -120.68,-34.73 -156.06,-47.73l-0.43 -1953.34 -41.68 0.01 -0.07 1952.66c7.38,4.9 248.83,90.22 263.27,95.32 18.23,6.43 251.92,88.93 263.72,95.13 -17.69,10.18 -247.34,31.39 -285.67,34.19 -261.32,19.05 -578.41,15.13 -840.13,-20.35 -19.34,-2.62 -52.66,-5.64 -69.45,-10.9l540.02 -192.47 0.37 -1888.04 -40.42 -0.86 0 1888.53c-24.97,9.71 -124.94,37.69 -159.03,48.09 -132.94,40.55 -267.08,79.31 -399.49,120.35 -35.95,11.15 -34.2,9.41 -75.59,0.14 -8.37,-1.87 -7.56,-1.93 -10.63,-4.54 47.23,-10.82 100.25,-27.4 148.04,-40.67l427.89 -118.24c5.97,-1.64 14.87,-2.12 17.68,-7.35l0.01 -1853.23 -65.67 -0.13 -0.28 1853.36c-1.49,4.79 -9.89,4.83 -18.77,7l-304.89 74.17c-54.35,13.01 -108.21,26.56 -162.67,39.65 -26.96,6.48 -54.45,13.33 -81.87,19.85 -36.41,8.67 -32.71,12.71 -79.82,-6.19l604.61 -131.93 0.5 -1855.69 -65.56 -0.25 -0.38 1855.06c-7.7,3.64 -519.63,98.4 -570.49,108.02 -21.95,4.15 -18.43,5.51 -36.06,-4.68 -11.61,-6.71 -19.25,-12.5 -28.1,-20.07 5.69,-3.69 438.58,-61.66 517.03,-72.2 21.8,-2.93 53.37,-5.56 74.26,-10.57l0.44 -1855.07 -65.47 -0.52 -0.47 1684.95c-36.27,5.65 -74.79,8.65 -111.6,13.64 -105.44,14.28 -424.76,67.5 -453.04,173.31 -2.4,8.98 -2.14,48.73 -1,59.44 4.55,42.69 64.64,72.52 101.31,88.99 211.71,95.08 647.37,118.65 886.71,118.83 246.37,0.17 667.68,-23.13 887.75,-117.8 35.37,-15.22 94.2,-45.08 102.72,-84.46 1.79,-8.29 2.2,-52.48 0.77,-60.99 -8.08,-48.08 -95.12,-86.38 -146.81,-105.29 -92.59,-33.88 -205.55,-55.35 -305.79,-70.16 -36.78,-5.44 -76.14,-8.54 -112.62,-14.31l-0.19 -1685.51 -65.84 -0.66 -0.02 1853.44c3.43,4.42 9.21,3.86 15.82,4.61l131.56 17.31c60.42,8.07 442.44,56.88 446.97,59.92 -5.91,7.14 -17.33,14.78 -25.81,19.94 -16.83,10.22 -14.57,8.71 -36.27,4.7 -190.69,-35.27 -384.21,-67.8 -574.32,-103.95l-0.73 -1855.68 -65.63 -0.22 -0.29 1855.57c19.02,5.8 280.41,59.03 306.78,64.51 31.69,6.59 298.23,60.85 305.13,64.83 -45.82,17.73 -38.41,15.58 -80.16,5.78l-562.88 -130.27c-6.27,-1.45 -16.7,-1.74 -19.95,-7.05l-0.01 -1979.39 -34.93 -0.53 -0.08 1979.92z"/>
   <path class="fil0" d="M1042.15 2864.8c3.76,-19.22 5.18,-44.81 7.18,-64.77l19.45 -194.17c5.94,43.98 21.13,89.91 32.83,131.39 9.68,34.34 26.28,97.21 36.45,127.51l92.92 0.04c12.16,-35.04 42.69,-146.37 54.85,-192.1l14.43 -66.87 26.63 258.95 153.67 -0.08 -69.04 -457.81 -162.12 0.2c-5.38,23.84 -26.72,92.72 -34.94,120.81 -9.16,31.3 -20.17,77.02 -24.85,110.39 -0.72,5.08 -0.96,11.02 -3.67,15.16 -2.93,-5.68 -9.89,-54.42 -12.54,-66.48 -8.53,-38.82 -21.71,-82.28 -32.22,-121.36 -2.73,-10.15 -5.43,-20.2 -8.18,-30.18 -1.62,-5.9 -6.05,-27.29 -10.11,-28.55l-157.41 0c-5.84,4.59 -5.55,19.57 -6.77,27.21l-69.58 430.69 153.02 0.02z"/>
   <path class="fil0" d="M145.21 2406.88c-0.62,55.76 -0.06,111.84 -0.06,167.64 0,49.19 -3.25,113.01 7.14,158.54 40.9,179.2 357.16,176.76 395.28,-1.94 10.09,-47.3 6.94,-108.14 6.94,-158.27 0,-55.22 0.43,-110.62 -0.05,-165.97l-160.03 0.25c-0.36,41.11 2.03,242.29 -1.51,270.96 -3.54,28.7 -12.91,47.08 -43.74,46.91 -30.74,-0.17 -39.51,-18.93 -42.62,-47.44 -3.5,-32.1 -1,-226.49 -1.32,-270.64l-160.03 -0.04z"/>
   <path class="fil0" d="M1513.86 2851.11c102.81,24.37 241.85,25.49 301.15,-71.73 17.03,-27.91 26.88,-71.33 17.29,-109.52 -26.97,-107.28 -166.13,-82.5 -184.13,-116.76 -5.41,-10.28 1.56,-18.55 8.64,-22.12 29.53,-14.87 79.19,5.77 107.27,16.63 8.12,3.14 16.43,6.47 23.7,9.58 5.9,2.53 17.68,9.31 22.02,10.07l-22.6 -138.13c-18.37,-10.25 -84.91,-22.21 -110.23,-22.64 -40.14,-0.69 -79.39,7.02 -110.87,22.07 -101.87,48.71 -125.97,188.93 -21.05,241.22 30.64,15.27 74.86,15.72 101.63,30.24 20.41,11.08 14.37,30.55 -6.27,36.64 -43.44,12.81 -111.88,-26.14 -150.85,-43.19l24.3 157.64z"/>
   <path class="fil0" d="M908.09 2530.52c2.99,-18.04 20.53,-113.98 18.25,-123.72l-337.67 0.26 0.16 458.07 175.24 0.04 0.22 -163.33 114.34 -0.04c5.91,-4.44 5.59,-20.81 6.85,-28.58 3.45,-21.32 12.71,-73.21 13.64,-88.85l-135 -0.66 0.11 -52.49 143.86 -0.7z"/>
   <path class="fil0" d="M1026.22 1982.21l0.62 -1921 -42.26 -0.37c-1.83,39.54 -0.19,82.55 -0.19,121.93l0 1720.32c0,20.59 0.16,41.24 -0.01,61.82 -0.14,16.19 -10.54,20.6 41.84,17.3z"/>
   <path class="fil0" d="M564.77 1982.07c1.06,-1.89 0.5,0.31 1.37,-4.02l0.23 -35.13 -473.96 1.49c-12.63,1.4 -70.23,38.82 -70.63,86.22l542.99 -48.56z"/>
   <path class="fil0" d="M1414.8 1942.97c-0.18,8.17 -1.29,32.52 1.46,39.55l542.98 44.8c-1.37,-25.44 -13.31,-40.81 -25.73,-53.41 -10.86,-11.01 -31.25,-29.58 -47.69,-29.65l-314.07 -1.1c-30.46,-0.12 -135.32,-2.01 -156.95,-0.19z"/>
   <path class="fil0" d="M1414.96 1923.13l-0.23 5.01c8.66,5.19 179.78,-4.76 205.46,-5.61 67.82,-2.24 138.45,-3.44 206.08,-7.58 -5.7,-5.23 -33.75,-13.13 -40.84,-15.07 -12.26,-3.36 -37.31,0.34 -51.63,1.26 -45.51,2.92 -312.4,18.42 -318.84,21.99z"/>
   <path class="fil0" d="M156.37 1915.02c111.95,6.56 244.06,9.02 359.83,13.11 11.35,0.41 42.7,4.46 50.14,0.01 -0.29,-8.78 2.71,-6.08 -21.55,-7.58 -8.29,-0.51 -16.65,-1.16 -25.18,-1.72l-160.35 -10.39c-16.17,-1.05 -150.55,-11.08 -159.76,-9.59l-43.13 16.16z"/>
   <path class="fil0" d="M281.33 1877.15c30.42,5.83 173.58,22.72 213.16,27.42 12.13,1.44 23.55,2.98 35.88,4.56 5.89,0.76 11.98,1.5 17.68,2.25 4.96,0.66 14.01,2.89 18.35,0.06 -0.36,-8.9 -2.08,-6.92 -11.91,-8.03 -61.57,-6.93 -140.18,-19.12 -203.02,-27.87 -33.38,-4.65 -37.86,-8.13 -70.14,1.61z"/>
   <path class="fil0" d="M1414.79 1911.44c0.36,0.23 0.98,0.01 1.18,0.48 1.36,3.2 136.45,-15.8 138.86,-16.1 24.77,-3.08 123.02,-14.47 139.91,-18.39 -27.45,-9.67 -41.81,-5.19 -69.86,-1.31 -23.89,3.3 -47.87,6.74 -71.6,9.87l-125.15 17.17c-10.18,1.2 -13.06,-0.99 -13.34,8.28z"/>
   <path class="fil0" d="M467.14 1844.73l98.73 33.2 0.63 -46.5c-15.93,0.29 -34.28,3.16 -50.01,4.99 -8.32,0.97 -16.92,2.04 -25.35,3.12 -7.82,1.01 -18.79,1.23 -24,5.19z"/>
   <path class="fil0" d="M1414.81 1877.34c13.8,-2.86 33,-10.73 47.26,-15.57 12.76,-4.33 35.67,-13.56 45.13,-15.99l-92.4 -10.7 0.01 42.26z"/>
   <path class="fil0" d="M385.51 1856.32c7.6,4.44 112.33,24.97 135.99,29.95 7.21,1.51 39.21,10.86 44.97,6.8 -0.98,-8.81 -8.12,-7.17 -17.6,-9.27 -7.86,-1.74 -15.66,-3.55 -23.09,-5.2l-91.43 -20.56c-16.16,-3.74 -32.9,-9.34 -48.84,-1.72z"/>
   <path class="fil0" d="M1414.76 1894.98l173.63 -36.25c-20.72,-10.5 -68.44,5.23 -90.82,10.21l-65.4 14.7c-11.55,2.49 -17.23,-0.04 -17.41,11.34z"/>
  </g>
 </g>
</svg>
